<svg xmlns="http://www.w3.org/2000/svg" width="143.406" height="24.281" viewBox="0 0 143.406 24.281"><defs><style>.cls-1{fill:#fff;fill-rule:evenodd}</style></defs><path id="Shape" class="cls-1" d="M116.4 31.8v-3.2a.56.56 0 0 0-.5-.6h-15.3a.645.645 0 0 0-.6.6V31l5.7 6.9H100v13.7a.645.645 0 0 0 .6.6h3.3a.56.56 0 0 0 .5-.6v-9.3h8.6a.669.669 0 0 0 .7-.6v-3.3a.6.6 0 0 0-.7-.5h-1.5l-4.6-5.5h9a.648.648 0 0 0 .5-.6zm24.8 19.7v-3.2a.56.56 0 0 0-.5-.6h-11.5v-5.5h10.4a.645.645 0 0 0 .6-.6v-3.3a.56.56 0 0 0-.6-.5h-10.4v-5.5h11a.56.56 0 0 0 .6-.5v-3.3a.645.645 0 0 0-.6-.6h-14.8a.645.645 0 0 0-.6.6v23a.645.645 0 0 0 .6.6h15.3a.649.649 0 0 0 .5-.6zm25.1 0v-3.2a.56.56 0 0 0-.5-.6h-11.5v-5.5h10.4a.645.645 0 0 0 .6-.6v-3.3a.56.56 0 0 0-.6-.5h-10.4v-5.5h11a.56.56 0 0 0 .6-.5v-3.3a.645.645 0 0 0-.6-.6h-14.8a.645.645 0 0 0-.6.6v23a.645.645 0 0 0 .6.6h15.3a.649.649 0 0 0 .5-.6zm9.2.6h6a12.254 12.254 0 0 0 7.7-2.7 12.044 12.044 0 0 0-7.7-21.3h-6a.56.56 0 0 0-.6.5v22.8a.669.669 0 0 0 .6.7zm6-19.7a7.943 7.943 0 0 1 6 2.8 7.646 7.646 0 0 1-1.1 10.8 8.1 8.1 0 0 1-4.9 1.7h-2.2V32.4h2.2zm37 19.1v-3.2a.56.56 0 0 0-.5-.6h-11.5v-5.5h10.4a.645.645 0 0 0 .6-.6v-3.3a.56.56 0 0 0-.6-.5h-10.4v-5.5h10.9a.56.56 0 0 0 .6-.5v-3.3a.645.645 0 0 0-.6-.6h-14.8a.645.645 0 0 0-.6.6v23a.645.645 0 0 0 .6.6h15.3a.649.649 0 0 0 .5-.6h.1zm24-.2l-4.6-7.9-.6-1.1-.1-.3c4.1-.9 6.2-3.9 6.2-6.8a6.708 6.708 0 0 0-2.4-5.1 9.7 9.7 0 0 0-6.3-2h-8.2a.56.56 0 0 0-.6.5v2.2l.3.5 3.7 6.6h-4v13.6a.645.645 0 0 0 .6.6h3.3a.649.649 0 0 0 .5-.6v-9.3h2.1l.6 1.1 4.8 8.5.1.1a.349.349 0 0 0 .4.3h3.8a.56.56 0 0 0 .5-.6.367.367 0 0 0-.1-.3zM235 37.9l-.6-1.1-2.5-4.4h2.8c3.1 0 4.4 1.4 4.4 2.7 0 1.2-1 2.4-3.3 2.7a1.955 1.955 0 0 1-.8.1z" transform="translate(-100 -27.906)"/></svg>