<svg xmlns="http://www.w3.org/2000/svg" width="46.844" height="46.91" viewBox="0 0 46.844 46.91"><defs><style>.cls-1{fill:#3498db;fill-rule:evenodd}</style></defs><path id="Shape" class="cls-1" d="M428.417 4296.79l4.181 4.27-4.181 4.18-4.267-4.18 1.536-1.46a16.833 16.833 0 0 0-10.837-4.01 16.242 16.242 0 0 0-9.472 2.99l.768.68-4.267 4.18-.683-.68a16.8 16.8 0 0 0 1.024 20.31l1.451-1.45 4.181 4.18-4.181 4.18-4.267-4.18 1.536-1.62a18.447 18.447 0 0 1-2.389-20.57l-6.485 6.49a3.477 3.477 0 0 1-.512 4.18 3.373 3.373 0 0 1-2.389 1.02 3.659 3.659 0 0 1-2.389-.94 3.451 3.451 0 0 1 2.389-5.88 3.088 3.088 0 0 1 1.708.51l8.363-8.36-1.536-1.54 4.181-4.18 1.535 1.53 8.193-8.19a3.507 3.507 0 0 1 .511-4.18 3.412 3.412 0 1 1 2.389 5.89 3.085 3.085 0 0 1-1.707-.51l-6.485 6.48a18.227 18.227 0 0 1 20.565 2.39l1.536-1.53zm-22.955 29.01l-1.792 1.79-1.792-1.79 1.792-1.79 1.792 1.79zm7.851-40.45a1.649 1.649 0 0 0 0 2.39 1.655 1.655 0 0 0 2.39 0 1.648 1.648 0 0 0 0-2.39 1.655 1.655 0 0 0-2.39 0zm-22.955 27.73a1.649 1.649 0 0 0 0-2.39 1.656 1.656 0 0 0-2.391 0 1.71 1.71 0 0 0-.511 1.2 1.421 1.421 0 0 0 .511 1.19 1.634 1.634 0 0 0 2.391 0zm11.435-12.03l-1.793-1.79 1.792-1.79 1.792 1.79-1.792 1.79zm26.624 1.79l-1.792-1.79 1.792-1.79 1.792 1.79-1.792 1.79z" transform="translate(-385.75 -4283.06)"/></svg>