<svg id="camera" xmlns="http://www.w3.org/2000/svg" width="47" height="47" viewBox="0 0 47 47"><defs><style>.cls-1{fill:#3498db;fill-rule:evenodd}</style></defs><path id="Shape" class="cls-1" d="M817.94 4598.74a3.464 3.464 0 0 1 3.466 3.46v20.8a3.464 3.464 0 0 1-3.466 3.46h-36.385a3.464 3.464 0 0 1-3.465-3.46v-20.8a3.462 3.462 0 0 1 3.465-3.46h7.312l4.081-4.09v.01a3.464 3.464 0 0 1 2.538-1.12h8.663a3.446 3.446 0 0 1 2.436 1l.008.01a.073.073 0 0 0 .013.01l4.167 4.18h7.164zm1.736 24.25v-20.79a1.737 1.737 0 0 0-1.734-1.73h-7.885l-4.673-4.69a1.754 1.754 0 0 0-1.23-.51h-8.663a1.721 1.721 0 0 0-1.266.56l-1.989 2.16-.042-.13-2.607 2.61h-8.031a1.737 1.737 0 0 0-1.732 1.73v20.79a1.738 1.738 0 0 0 1.732 1.74h36.386a1.739 1.739 0 0 0 1.734-1.74z" transform="translate(-776.25 -4586.5)"/><path id="Shape-2" data-name="Shape" class="cls-1" d="M799.75 4600.47a11.265 11.265 0 1 1-11.263 11.26 11.261 11.261 0 0 1 11.263-11.26zm0 20.79a9.53 9.53 0 1 0-9.529-9.53 9.537 9.537 0 0 0 9.529 9.53z" transform="translate(-776.25 -4586.5)"/><path id="Shape-3" data-name="Shape" class="cls-1" d="M799.75 4603.94a7.8 7.8 0 1 1-7.8 7.79 7.789 7.789 0 0 1 7.8-7.79zm0 13.86a6.065 6.065 0 1 0-6.065-6.07 6.078 6.078 0 0 0 6.065 6.07z" transform="translate(-776.25 -4586.5)"/></svg>