<svg id="film" xmlns="http://www.w3.org/2000/svg" width="47" height="47" viewBox="0 0 47 47"><defs><style>.cls-1{fill:#3498db;fill-rule:evenodd}</style></defs><path id="Shape" class="cls-1" d="M388.75 4592.1v35.8h42.617v-35.8H388.75zm6.818 34.09h-5.113v-6.81h5.113v6.81zm0-8.52h-5.113v-6.82h5.113v6.82zm0-8.52h-5.113v-6.82h5.113v6.82zm0-8.53h-5.113v-6.81h5.113v6.81zm27.274 2.85v22.72h-25.569v-32.38h25.569v9.66zm6.821 22.72h-5.114v-6.81h5.114v6.81zm0-8.52h-5.114v-6.82h5.114v6.82zm0-8.52h-5.114v-6.82h5.114v6.82zm0-8.53h-5.114v-6.81h5.114v6.81z" transform="translate(-386.563 -4586.5)"/><path id="Shape-2" data-name="Shape" class="cls-1" d="M405.8 4603.11v13.78l11.933-6.89-11.933-6.89zm1.7 2.95l6.818 3.94-6.818 3.94v-7.88z" transform="translate(-386.563 -4586.5)"/></svg>