<svg id="MapPin" xmlns="http://www.w3.org/2000/svg" width="56.781" height="70" viewBox="0 0 56.781 70"><defs><style>.cls-1,.cls-2{fill:#3498db;fill-rule:evenodd}.cls-2{fill:#fff}</style></defs><path id="Pin" class="cls-1" d="M779 6950.4a28.4 28.4 0 1 1 56.792 0c0 15.68-12.713 41.6-28.4 41.6S779 6966.08 779 6950.4z" transform="translate(-779 -6922)"/><g id="F"><path id="Shape" class="cls-2" d="M817.659 6941.82l-.015-3.15a.547.547 0 0 0-.5-.59h-15.438a.637.637 0 0 0-.6.59v2.37l5.76 6.8H801.1v13.49a.637.637 0 0 0 .6.59h3.347a.548.548 0 0 0 .5-.59v-9.17h8.67a.665.665 0 0 0 .709-.59v-3.25a.6.6 0 0 0-.709-.48h-1.507l-4.645-5.44h9.093a.636.636 0 0 0 .5-.58z" transform="translate(-779 -6922)"/></g></svg>