<svg xmlns="http://www.w3.org/2000/svg" width="46.997" height="47" viewBox="0 0 48 48.003"><defs><style>.cls-1{fill:#3498db;fill-rule:evenodd}</style></defs><path id="Shape" class="cls-1" d="M1213.75 4594.43l-32.68 32.68-2.14-2.14a6.07 6.07 0 0 1-1.15 6.98c-3.17 3.17-9.23 3.45-11.31 3.45-.46 0-.72-.01-.72-.01s.11-7.24 2.63-11.03l.12-.18c.06-.08.12-.16.18-.23a1.558 1.558 0 0 1 .16-.2 4.4 4.4 0 0 1 .35-.39 6.059 6.059 0 0 1 6.98-1.15l-2.01-2.01 29.77-29.76-1.75-1.76-13.43 13.43a.863.863 0 1 1-1.22-1.22l14.03-14.04a.869.869 0 0 1 1.23 0l2.36 2.36 1.69-1.69 6.91 6.91zm-37.2 36.3a4.364 4.364 0 0 0 0-6.15 4.346 4.346 0 0 0-6.14 0c-.09.09-.16.18-.24.27-.05.06-.08.1-.11.14-.07.08-.1.14-.14.19l-.04.06-.05.07a17.451 17.451 0 0 0-2.08 6.85l3.78-3.77 1.22 1.22-3.94 3.94c2.42-.22 5.81-.89 7.74-2.82zm34.75-36.3l-10.27 10.27-4.46-4.45 10.27-10.28 4.46 4.46zm-15.96 7.04l4.46 4.46-18.73 18.73-4.46-4.46 18.73-18.73z" transform="translate(-1165.75 -4586.998)"/></svg>