<svg xmlns="http://www.w3.org/2000/svg" width="32" height="32" viewBox="0 0 32 32"><defs><style>.cls-1{fill:#3498db;fill-rule:evenodd}</style></defs><path id="Shape" class="cls-1" d="M29.439 7.11A2.653 2.653 0 0 1 32 9.846v16.413A2.653 2.653 0 0 1 29.439 29H2.557A2.653 2.653 0 0 1 0 26.259V9.846A2.652 2.652 0 0 1 2.557 7.11h5.4l3.015-3.227v.007a2.477 2.477 0 0 1 1.875-.884h6.4a2.47 2.47 0 0 1 1.8.79l.011.004a.076.076 0 0 0 .01.01l3.078 3.3h5.293zm1.282 19.146V9.844a1.328 1.328 0 0 0-1.281-1.367h-5.825l-3.453-3.7a1.238 1.238 0 0 0-.909-.405h-6.4a1.23 1.23 0 0 0-.935.445l-1.469 1.7-.031-.1-1.927 2.061H2.558a1.328 1.328 0 0 0-1.28 1.368v16.412a1.328 1.328 0 0 0 1.28 1.367H29.44a1.329 1.329 0 0 0 1.281-1.367zM16 8.478a8.619 8.619 0 0 1 8.321 8.89c0 4.91-3.725 8.892-8.321 8.892s-8.321-3.982-8.321-8.892A8.619 8.619 0 0 1 16 8.478zm0 16.412a7.3 7.3 0 0 0 7.04-7.523A7.3 7.3 0 0 0 16 9.846a7.3 7.3 0 0 0-7.04 7.521A7.3 7.3 0 0 0 16 24.89zm0-13.678a5.966 5.966 0 0 1 5.76 6.153A5.968 5.968 0 0 1 16 23.522a5.968 5.968 0 0 1-5.76-6.156A5.965 5.965 0 0 1 16 11.213zm0 10.942a4.648 4.648 0 0 0 4.48-4.788A4.645 4.645 0 0 0 16 12.58a4.645 4.645 0 0 0-4.481 4.786A4.648 4.648 0 0 0 16 22.154z"/></svg>