<svg id="speaker" xmlns="http://www.w3.org/2000/svg" width="52.07" height="47" viewBox="0 0 52.07 47"><defs><style>.cls-1{fill:#3498db;fill-rule:evenodd}</style></defs><path id="Shape" class="cls-1" d="M1163.34 4301.01v12.13h5.2v10.4h1.73v-10.4h13.33l12.66 10.24v-32.92l-12.74 10.55h-20.18zm1.73 10.4v-8.67h6.94v8.67h-6.94zm19.56-9.06l9.89-8.2v25.6l-10.31-8.34h-10.47v-8.66h10.4l.48-.4h.01z" transform="translate(-1163.34 -4283.5)"/><path id="Shape-2" data-name="Shape" class="cls-1" d="M1208.25 4291.99a19.044 19.044 0 0 1-.33 30.02l-1.25-1.25a17.256 17.256 0 0 0 .33-27.52l1.25-1.25z" transform="translate(-1163.34 -4283.5)"/><path id="Shape-3" data-name="Shape" class="cls-1" d="M1202.68 4297.57a11.251 11.251 0 0 1-.36 18.85l-1.26-1.26a9.509 9.509 0 0 0 .36-16.33l1.26-1.26z" transform="translate(-1163.34 -4283.5)"/></svg>