<svg xmlns="http://www.w3.org/2000/svg" width="1142.969" height="45.97" viewBox="0 0 1142.969 45.97"><defs><style>.cls-1{fill:#dadada;fill-rule:evenodd}</style></defs><path id="Shape" class="cls-1" d="M228.046 5672l3.741 41.35 16.793 4.59 16.837-4.6 3.748-41.34h-41.119zm32.975 13.52h-19.7l.469 5.2h18.761l-1.413 15.57-10.535 2.87-.011.01h-.012l-10.546-2.88-.721-7.97h5.169l.366 4.05 5.732 1.52h.012l5.735-1.53.595-6.57h-17.837l-1.389-15.34h25.785l-.46 5.07zm122.646-13.49l-1.729 8.52h35.207l-1.1 5.5h-35.23l-1.7 8.52h35.2l-1.963 9.72-14.189 4.63-12.3-4.63.841-4.21h-8.648L376 5710.3l20.338 7.67 23.446-7.67 7.736-38.27h-43.853zm334.018 7.14v14.91h-19.112v8.28H694.4a7.224 7.224 0 0 1-7.276-7.17v-4.3a7.224 7.224 0 0 1 7.276-7.17l13.757-.01v-2.02h-9.386v-2.52a7.223 7.223 0 0 1 7.276-7.17h4.366a7.223 7.223 0 0 1 7.276 7.17zm-15.139.36a1.045 1.045 0 1 0-1.059-1.05 1.054 1.054 0 0 0 1.059 1.05zm21.427 8.07a7.223 7.223 0 0 1 7.275 7.17v4.3a7.223 7.223 0 0 1-7.275 7.17h-13.757v2.03h9.384v2.52a7.223 7.223 0 0 1-7.276 7.17h-4.364a7.224 7.224 0 0 1-7.277-7.17v-14.92H719.8v-8.27h4.177zm-8.15 22.83a1.045 1.045 0 1 0 1.059 1.04 1.052 1.052 0 0 0-1.059-1.04zm145.165-38.4A22.96 22.96 0 1 1 838 5694.99a23 23 0 0 1 22.988-22.96zm15.125 10.84c-.679.88-3.959 4.76-10.754 7.56.436.9.855 1.81 1.246 2.72.132.31.26.62.387.93a37.458 37.458 0 0 1 4.427-.26 48.779 48.779 0 0 1 8.985.87 19.277 19.277 0 0 0-4.291-11.82zm-15.125-7.25a19.754 19.754 0 0 0-4.38.5 105.152 105.152 0 0 1 7.145 11.21c6.553-2.48 9.488-6.15 10.03-6.89a19.34 19.34 0 0 0-12.795-4.82zm-8.342 1.89a19.455 19.455 0 0 0-10.638 13.4h.19a73.806 73.806 0 0 0 17.552-2.34 124.878 124.878 0 0 0-7.1-11.06zm-11.079 17.51a19.318 19.318 0 0 0 4.889 12.85c.821-1.36 6.158-9.66 15.863-12.79.214-.07.429-.13.645-.2a71.57 71.57 0 0 0-1.484-3.1 72.656 72.656 0 0 1-19.395 2.76h-.51c0 .16-.008.32-.008.48zm19.421 19.39a19.331 19.331 0 0 0 7.5-1.5 80.981 80.981 0 0 0-4.108-14.58h-.022c-10.638 3.71-14.664 10.96-15.218 12.05a19.328 19.328 0 0 0 11.845 4.03zm11-3.42a19.388 19.388 0 0 0 8.159-12.79 28.589 28.589 0 0 0-7.972-1.12 25.624 25.624 0 0 0-3.91.3 84.828 84.828 0 0 1 3.723 13.61zM579.132 5672a1.482 1.482 0 0 1 1.492 1.47v42.99a1.476 1.476 0 0 1-1.492 1.47h-43.64a1.476 1.476 0 0 1-1.492-1.47v-42.99a1.482 1.482 0 0 1 1.492-1.47h43.64zm-23.707 25.53v-8.34a1.379 1.379 0 0 0-1.391-1.37h-5.191a1.37 1.37 0 1 0 0 2.74h3.8v6.97c0 1.7-.771 1.7-1.281 1.7a2.012 2.012 0 0 1-1.663-1 1.415 1.415 0 0 0-1.933-.36 1.364 1.364 0 0 0-.364 1.91 4.77 4.77 0 0 0 3.96 2.19c2.506 0 4.063-1.7 4.063-4.44zm6.834 4.69c3.113 0 5.205-1.6 5.205-3.96.026-3.08-2.742-3.9-4.573-4.45-2.149-.64-2.774-.99-2.774-2.04 0-.97 1.362-1.31 2.529-1.31a5.178 5.178 0 0 1 2.514.66 1.4 1.4 0 0 0 1.923-.41 1.354 1.354 0 0 0-.413-1.89 7.9 7.9 0 0 0-4.024-1.1c-3.176 0-5.311 1.63-5.311 4.05 0 3.25 2.858 4.1 4.749 4.66 2.144.64 2.605.96 2.6 1.82 0 .9-1.305 1.22-2.423 1.22a4.286 4.286 0 0 1-2.944-1.16 1.405 1.405 0 0 0-1.966-.05 1.347 1.347 0 0 0-.054 1.93 7.062 7.062 0 0 0 4.964 2.03zm488.061-21.89h-16.74v-4.09h16.74v4.09zm-27.88 16.8a9.175 9.175 0 0 0-4.79-3.62 9.825 9.825 0 0 0 3.16-2.33 9 9 0 0 0 1.92-6.03 10.3 10.3 0 0 0-1.9-6.25c-2.11-2.84-5.7-4.28-10.76-4.36H990v40.94h18.72a29.919 29.919 0 0 0 5.86-.55 11.5 11.5 0 0 0 4.69-2.06 11.151 11.151 0 0 0 2.94-3.21 11.83 11.83 0 0 0 1.85-6.54 10.659 10.659 0 0 0-1.62-5.99zm-22.856-6.45v-9.03h7.736a15.651 15.651 0 0 1 4.9.64 3.659 3.659 0 0 1 2.24 3.77 3.83 3.83 0 0 1-1.69 3.6 8.366 8.366 0 0 1-4.39 1.02h-8.8zm15.716 11.86q0 3.78-2.73 5.11a9.761 9.761 0 0 1-4.2.72h-8.786v-10.91h8.916a10.4 10.4 0 0 1 4.16.69 4.386 4.386 0 0 1 2.64 4.39zm41.23-6.66a14.461 14.461 0 0 0-2.38-6.07 11.947 11.947 0 0 0-5.14-4.34 17.113 17.113 0 0 0-7-1.37 14.509 14.509 0 0 0-10.65 4.06q-4.095 4.065-4.09 11.7 0 8.13 4.54 11.74a16.348 16.348 0 0 0 10.48 3.61q7.2 0 11.2-4.28a9.473 9.473 0 0 0 2.88-5.3h-7.94a6.4 6.4 0 0 1-1.6 2.01 6.587 6.587 0 0 1-4.32 1.35 7.912 7.912 0 0 1-4.29-1.1c-1.96-1.18-2.99-3.24-3.11-6.19h21.67a37.982 37.982 0 0 0-.25-5.82zm-7.82.76h-13.42a7.884 7.884 0 0 1 2.08-4.54 6.238 6.238 0 0 1 4.64-1.68 6.862 6.862 0 0 1 4.62 1.59 6.371 6.371 0 0 1 2.08 4.63zM1325 5672.2v45.61h46v-45.61h-46zm42.21 3.79c-3.3-.01-35.13-.01-38.42 0v38.03h38.42v-38.03zm-24.16 25.58l-12.09-5.26v-2.91l12.09-5.23v3.43l-8.43 3.22 8.43 3.35v3.4zm1.12 2.31l4.38-18.23h2.53l-4.42 18.23h-2.49zm8.01-2.31s12.11-5.27 12.11-5.28v-2.88l-12.11-5.24v3.38l8.44 3.29-8.44 3.34v3.39zM1186.97 5672a22.97 22.97 0 1 1-22.97 22.97 22.965 22.965 0 0 1 22.97-22.97zm2.23 30.69c7.7.6 12-7.68 10.95-15.33-.94-6.77-7.69-10.22-14.89-9.41-5.7.64-11.37 5.24-11.61 11.82-.15 4.02.99 7.04 4.82 7.89 1.66-2.93-.54-3.58-.88-5.7-1.4-8.68 10.01-14.6 15.99-8.54 4.13 4.2 1.41 17.11-5.26 15.77-6.38-1.28 3.13-11.56-1.97-13.58-4.14-1.64-6.34 5.02-4.38 8.32-1.15 5.69-3.63 11.05-2.63 18.18 3.26-2.36 4.36-6.89 5.26-11.61 1.64 1 2.51 2.03 4.6 2.19z" transform="translate(-228.031 -5672)"/></svg>